<svg width="48" height="48" xmlns="http://www.w3.org/2000/svg">
    <path style="clip-rule:evenodd;fill:#fff;fill-rule:evenodd;stroke-width:.00799995" d="M0 0h48v48H0z"/>
    <path style="clip-rule:evenodd;fill:#35383b;fill-rule:evenodd;stroke-width:1.15985" d="m540.132 668.262 365.516-199.374 432.524-235.922-108.216-59.025-155.987 85.083c.086 1.308.134 2.624.134 3.952 0 34.8-29.858 63.01-66.693 63.01-36.834 0-66.693-28.21-66.693-63.01 0-34.798 29.858-63.008 66.693-63.008 13.65 0 26.34 3.876 36.909 10.525l126.324-68.905-93.39-50.941-251.663 137.27c.086 1.308.136 2.625.136 3.953 0 34.8-29.86 63.01-66.694 63.01-36.833 0-66.694-28.21-66.694-63.01 0-34.798 29.861-63.008 66.694-63.008 13.649 0 26.34 3.877 36.908 10.525l222.001-121.092L905.648-2.957l-424.83 231.725v870.591l59.312 32.352v-463.45Z" transform="matrix(.024 0 0 .024 2.264 .071)"/>
    <path style="clip-rule:evenodd;fill:#0f0;fill-opacity:1;fill-rule:evenodd;stroke-width:1.15985" d="M964.96 501.24 599.444 700.615v64.705l424.83-231.727 365.517 199.372 432.524 235.923V850.836l-155.987-85.086a67.777 67.777 0 0 1-3.555 2.087c-31.899 17.399-72.689 7.073-91.106-23.063-18.417-30.137-7.487-68.672 24.412-86.071 31.9-17.4 72.687-7.073 91.105 23.064 6.824 11.166 9.617 23.486 8.808 35.458l126.325 68.906V684.25l-251.662-137.272a69.686 69.686 0 0 1-3.557 2.087c-31.898 17.398-72.686 7.073-91.102-23.063-18.419-30.136-7.488-68.673 24.41-86.073 31.898-17.4 72.688-7.073 91.105 23.064 6.825 11.168 9.616 23.487 8.807 35.46l222 121.092v-122.5L1397.49 265.32Z" transform="matrix(.024 0 0 .024 2.264 .071)"/>
    <path style="clip-rule:evenodd;fill:#35383b;fill-rule:evenodd;stroke-width:1.15985" d="M1389.79 797.668v.001l-365.515-199.371-59.314 32.352 424.827 231.724v870.591l108.214-59.026V1503.77a67.757 67.757 0 0 1-3.69-1.867c-31.9-17.4-42.827-55.935-24.411-86.072 18.417-30.135 59.207-40.462 91.105-23.063 31.9 17.398 42.827 55.935 24.411 86.073-6.824 11.166-16.722 19.611-28.1 24.934v137.81l93.389-50.94v-274.542a68.931 68.931 0 0 1-3.69-1.867c-31.899-17.398-42.827-55.935-24.412-86.07 18.418-30.137 59.207-40.464 91.103-23.063 31.9 17.4 42.83 55.934 24.412 86.072-6.823 11.166-16.723 19.61-28.101 24.933v242.185l112.291-61.25v-463.452z" transform="matrix(.024 0 0 .024 2.264 .071)"/>
    <path style="clip-rule:evenodd;fill:#35383b;fill-rule:evenodd;stroke-width:1.15985" d="M1271.166 1325.826 905.65 1525.2l-432.525 235.922 108.217 59.026 155.987-85.083a60.294 60.294 0 0 1-.135-3.953c0-34.799 29.86-63.01 66.694-63.01s66.693 28.211 66.693 63.01c0 34.798-29.858 63.009-66.693 63.009-13.65 0-26.34-3.876-36.909-10.524L640.655 1852.5l93.39 50.941 251.663-137.272a60.048 60.048 0 0 1-.135-3.953c0-34.796 29.861-63.006 66.693-63.008 36.834 0 66.695 28.211 66.695 63.009s-29.86 63.008-66.694 63.008c-13.649 0-26.34-3.876-36.908-10.525l-222 121.092 112.29 61.25 424.83-231.724V894.727l-59.311-32.351v463.45z" transform="matrix(.024 0 0 .024 2.264 .071)"/>
    <path style="clip-rule:evenodd;fill:#0f0;fill-opacity:1;fill-rule:evenodd;stroke-width:1.15985" d="M787.024 1460.495 421.51 1261.122-11.016 1025.2l.001 118.053 155.987 85.084a67.76 67.76 0 0 1 3.555-2.085c31.899-17.4 72.69-7.073 91.106 23.063 18.417 30.137 7.487 68.674-24.412 86.072-31.899 17.399-72.686 7.072-91.105-23.063-6.824-11.167-9.618-23.487-8.807-35.46l-126.325-68.905.001 101.881 251.662 137.271a69.625 69.625 0 0 1 3.558-2.086c31.897-17.4 72.686-7.073 91.102 23.063 18.418 30.136 7.488 68.675-24.41 86.073-31.899 17.398-72.689 7.073-91.106-23.064-6.824-11.166-9.615-23.487-8.806-35.459l-222-121.092v122.5l424.827 231.725 375.66-204.904 424.055-231.306h-1.673v-63.792z" transform="matrix(.024 0 0 .024 2.264 .071)"/>
    <path style="clip-rule:evenodd;fill:#35383b;fill-rule:evenodd;stroke-width:1.15985" d="m421.509 1131.712-.001-398.746V261.12l-108.214 59.026v170.169a67.734 67.734 0 0 1 3.69 1.867c31.9 17.398 42.827 55.935 24.411 86.071-18.417 30.137-59.207 40.463-91.105 23.064-31.9-17.399-42.827-55.935-24.411-86.073 6.824-11.167 16.72-19.613 28.1-24.935V352.5l-93.389 50.942v274.541a68.973 68.973 0 0 1 3.69 1.867c31.899 17.4 42.827 55.934 24.412 86.072-18.418 30.136-59.207 40.462-91.103 23.063-31.9-17.4-42.83-55.936-24.412-86.073C80 691.746 89.9 683.302 101.278 677.98V435.794l-112.291 61.25-.001 463.452 432.524 235.923 365.516 199.372 59.312-32.353z" transform="matrix(.024 0 0 .024 2.264 .071)"/>
</svg>
